<svg version="1.2" xmlns="http://www.w3.org/2000/svg" viewBox="0 0 484 115" width="484" height="115"><style>.a{fill:#fff}</style><path fill-rule="evenodd" class="a" d="m53.1 29.9q24.1-2.5 29.6-3.5 5.4-1.1 9.7-1.1 4.2 0 8 2 3.7 2 3.7 4 0 2.6-5.4 2.1-13.3-1.1-20.5-1.1-7.2 0-25.2 1.5 0 5.2-0.1 9.4 16.1-2.2 17.6-2.7 1.6-0.6 2.5-0.6 1.9 0 6.6 3.1 4.8 3 4.8 4.1 0 1.1-2.2 2.8-2.2 1.8-6.6 12.3-0.4 0.8-2.2 4.3-1.9 3.4-2.7 4-0.8 0.7-1.8 0.7-0.9 0-1.7-0.8-0.7-0.7-3.5-0.7-2.7 0-11.1 0.8l-0.1 10.8q11.6-2.3 13.9-2.3 2.2 0 3.8 0.9 1.7 0.8 1.7 1.9 0 1.9-3.7 2.4l-15.7 2-0.1 11.6q23.1-2.3 29.1-2.3 6 0 9 2 3 2 3 3.6 0 1.6-1.8 2.3-1.7 0.6-4.7 0.3-15.6-1.5-24-1.5-16.1 0-39 4.7-2.3 0.5-4.4 0.5-2.1 0-5.3-1.9-3.2-1.8-3.2-2.9 0-1.1 3.8-1.1 3.8 0 15.1-1.3 11.2-1.4 17.5-1.9v-11.5q-6.1 0.7-9.8 0.7-3.6 0-5.5-0.8-2-0.9-2-1.8 0-0.9 3.5-1.1 3.4-0.3 13.7-1.5v-11.1l-12.5 1.5q-0.2 1.2-1.5 1.2-3 0-5.3-7.4-1.2-4.3-3.5-9.8-2.2-5.5-3.6-7-1.3-1.4-1.3-2.6 0-1.2 1.6-1.2 1.6 0 3.3 0.6 2.3-0.1 7.4-0.7l15.2-1.8-0.1-9.7q-22.7 2.4-30.6 4.4-4.8 1.2-7.2 1.2-2.4 0-5.7-1.7-3.2-1.7-3.2-2.3 0-0.7 1.2-1 1.3-0.4 13.8-1.5l31.5-2.9q-0.3-8.1-1.8-11-8.4 1.7-12 1.7-3.6 0-3.6-0.8 0-0.7 3.2-1.7 12.4-3.7 19.8-6.8 7.4-3.2 8.4-5.4 0.7-1.6 2.1-1.6 1.5 0 5.9 3.3 4.3 3.3 4.3 4.9 0 1.6-3.5 1.9-3.6 0.3-20.8 3.9 2.8 0.9 4.1 1.7 1.4 0.8 1.4 2.1 0 1.2-0.5 2.8-0.5 1.7-0.8 4.4zm-0.5 37.1q9.1-1.1 11.5-0.7 0.8 0.1 1.3 0.1 1.5 0 2.6-2.1 1.1-2.1 2.4-8.7 1.3-6.6 1.3-7.7 0-1.2-1.2-2-1.1-0.7-4.7-0.7-3.6 0-12.9 1.1l-0.2 8q4.4-1.1 6.4-1.1 2 0 3.4 0.6 1.4 0.6 1.4 1.6 0 0.9-1.4 1.5-1.4 0.5-9.8 1.9zm-18.3 2.5q9.8-1.5 13.1-1.9v-8.1q-3 0.4-5.6 0.4-2.5 0-4.1-0.7-1.6-0.7-1.6-1.3 0-0.7 3.2-1 3.2-0.4 8-1.5v-8.4l-18.8 2.5q2.6 6.4 5.8 20zm132.6-59.5q0 2-1 3.1-0.9 1.1-2.3 1.1-1.3 0-3.5-1.9-2.2-1.9-5-5.2-2.7-3.2-2.7-3.9 0-1 1.7-1 1.8 0 5.7 1 3.8 0.9 5.5 2.5 1.6 1.7 1.6 4.3zm23.2 34.4q7.4-0.5 26.3-5.4 1.9-0.5 5.2-0.5 3.4 0 5.6 1.6 2.2 1.5 2.2 2.9 0 2.1-4.3 2.1-8.3 0-18.7 1.6 3.9 2.3 3.9 5.4 0 0.9-0.4 1.6-0.3 0.8-0.5 6.2-0.3 5.5-0.3 11v8.7q0 12.9-1.3 24.1-1.4 11.2-3.8 11.2-1 0-1.6-2.6-0.5-2.6-0.5-13.9l0.6-32.2q0-12.1-1.6-18.6-1.9 0.3-5 0.3-3 0-6-1.2-1.8 17.4-5.5 26.9-3.6 9.4-9.8 14.8-6.2 5.3-8.1 5.3-0.7 0-0.7-0.6 0-0.7 1-1.7 4.8-5 9.1-11.7 4.2-6.7 6.2-18.5 2-11.8 2-20.6 0-8.7-2.7-12.5-0.9-1.2-0.9-2.1 0-1.3 2.1-1.3 2.2 0 4.7 0.4 14.8-8.6 16.1-13.4 0.6-2.3 1.9-2.3 1.5 0 6.1 3 4.6 3 4.6 4.3 0 1.4-2.5 1.8-5.2 0.9-23.2 7.9 0.6 2.3 0.6 6.2 0 3.8-0.8 11.8zm-17.5-27.7q1.5 0 3.2 0.9 1.6 0.9 1.6 1.9 0 1-1.4 1.6-1.4 0.5-14.7 3.3-13.3 2.7-16.4 2.7-3 0-5.8-0.8-2.8-0.8-2.8-1.9 0-1 4-1.2 6.3-0.3 18.4-3.4 12.1-3.1 13.9-3.1zm-11.6 24.5q9.8-1.8 12.1-1.8 2.4 0 3.4 0.5 1 0.6 1 1.3 0 1.9-4.7 2.5l-17 2.9q3.6 2.5 3.6 4.8 0 0.8-0.3 4.8 5.7-1 8.4-1.6 2.8-0.7 4.2-0.7 1.4 0 2.6 0.8 1.1 0.8 1.1 1.7 0 1.7-2.6 2-6.4 0.3-13.8 1.7l-0.2 8.3q1.5-0.2 2.8-0.2 4.9 0 7.8 1.7 3 1.6 3 4.1 0 1.2-0.6 2.6-0.7 1.4-1.7 1.4-1.1 0-2.5-0.9-1.3-0.9-8.8-7.5l0.1 11.3q0 6.2-2 11-1.9 4.7-3.5 4.7-1.6 0-2.8-2-2.5-4.2-4.8-7-2.4-2.7-2.4-3.3 0-0.6 0.7-0.6 0.7 0 2.7 0.7 2 0.6 3.4 0.6 1.4 0 2.1-1.1 0.7-1.2 1.1-7.2 0.5-6 0.5-9.5 0-3.5-0.1-6.2-4.5 0.9-11 2.4-6.5 1.6-7.9 1.6-2.5 0-4.7-1.3-2.2-1.2-2.2-2 0-0.8 4.3-1.2 4.2-0.4 21.2-3.3-0.5-8-1.7-9.8-16.9 3.3-20.5 4.6-3.7 1.2-6 1.2-2.3 0-4.5-2-2.3-2.1-2.3-2.9 0-0.8 0.5-1 0.5-0.2 3.2-0.2 2.7 0 12.4-1.3 9.8-1.3 22.7-3.8 4.7-8.6 5.7-15.1 0.3-1.7 1.1-1.7 0.9 0 3.4 1.8 2.5 1.7 2.5 2.7 0 1-1.5 2.3-1.5 1.2-7.5 9.2zm-9-4.5q0 1.5-0.6 2.8-0.5 1.2-2 1.2-1.4 0-4-3.5-2.5-3.5-2.5-5 0-1.6 1.4-1.6 1.5 0 4.6 1.6 3.1 1.5 3.1 4.5zm-16 32.8q0.4-1 1.4-1 2.2 0 2.2 5 0 3.7-1.6 8.1-1.6 4.3-3.4 6.1-1.8 1.9-2.6 1.9-2.6 0-2.6-5 0-2.7 1.7-5.6 2.7-3.8 4.9-9.5zm166.8-23.3q13.5-2.1 24-3.5 0.8-6.3 0.8-9.5 0-3.1-1-4.8-1.1-1.7-1.1-2.3 0-1.9 2.3-1.9 1.7 0 5.1 2.3 3.4 2.2 4.7 3.2 1.4 1 1.4 2.5 0 1.4-1.2 3.3-1.3 1.9-2.5 6-2.5 10-3.8 12.8-1.2 2.8-2.7 2.8-2.8 0-2.8-5.9 0-2 0.3-4.5-9.9 1.5-23.7 4.3l-1.2 33.1q18.4-2.4 26.9-3.6-1.2-8-1.6-9-0.4-1-0.4-1.6 0-1.8 1.6-1.8 1.7 0 4.2 2 2.5 1.9 4.1 3.2 1.6 1.3 1.6 3.3 0 1.9-0.5 2.9-0.5 1-0.5 4.9l0.1 5.5q0 4.8-1.3 8.7-1.2 3.8-3 3.8-1.8 0-2.6-1-0.7-0.9-1.1-4.5-0.4-3.7-0.5-12.4-23 3.9-33.8 6.1-10.8 2.1-16 3.9-5.1 1.7-10 4.6-2.3 1.4-4 1.4-1.7 0-3.2-3.1-1.4-3-1.4-4.3 0-1.2 3.1-3.5 1.9-1.5 3.2-4.7 1.3-3.3 1.3-6.8 0-3.6-1.2-5.8-1.1-2.2-1.1-3.1 0-0.8 1.1-0.8 1.2 0 4.5 1.7 3.4 1.8 3.4 4.9 0 5.4-3.2 13.9l24.3-3.9 0.6-32.8q-11.9 2.3-17.4 4-5.6 1.7-9.5 4-2.5 1.4-4.1 1.4-1.6 0-2.9-3.1-1.3-3.1-1.3-4.4 0-1.2 2.3-3.5 4.3-4.4 4.3-10 0-4.2-2.8-7.6-1.1-1.5-1.1-2.4 0-1 1.8-1 1.8 0 3.8 1.2 2 1.2 3.3 2.7 1.4 1.5 1.4 5.6 0 4.1-1.9 12.3l24.1-4.2q0.1-7.3 0.1-16.5 0-9.2-0.7-16-0.8-6.8-2.6-9.7-1.2-1.9-1.2-3.1 0-1.2 1.7-1.2 1.7 0 7.4 1.8 5.7 1.7 5.7 4.2 0 1-0.6 2.7-1.8 4.3-3 36.8zm123.6-28.7q0.5 0.6 0.7 0.9 5.7-6.7 5.7-11l-0.3-1.7q0-1.5 1.8-1.5 1.7 0 5.3 1.5 3.7 1.4 3.7 2.7 0 1.2-1.5 2.2-5 3.6-6.8 5.2-1.7 1.6-6 4.7 4.9 5.4 9 9.4 6.9-5.7 9.2-8.7 2.3-3 2.3-5.4 0-2.4 1.7-2.4 1.7 0 5.4 2.4 3.7 2.4 3.7 4.1 0 1.1-2 2-2 0.8-6 3.2l-11.9 6.9q8.9 8.2 14.4 12.3 5.6 4.1 10.8 6.1 5.3 2.1 15 4.7 2.7 0.6 2.7 1.4 0 0.7-1.1 1.1-1.1 0.4-7.8 1.2-6.6 0.8-9.8 0.8-3.2 0-5-0.7-1.7-0.7-3.6-2.7l-21-22.5q-12.9-14.5-16.4-16.5-1.6-1-1.6-1.8 0-1.4 2.9-1.4 3.5 0 6.5 3.5zm-33.1 22.5q4.3-7.6 6.4-13.2 2.1-5.6 2.1-6.7 0-1.2-0.5-1.2-0.5 0-1.4 0.2-5.5 1.6-8.1 1.6-2.7 0-4.8-1-2.1-1-2.1-1.8 0-0.8 2-0.8 2 0 7.4-1.5 5.5-1.5 7.7-3.2 0.8-0.7 2-0.7 1.3 0 5.3 2.2 4 2.2 4 3.5 0 1.2-2.3 3.6-1 1-3.9 6.6-7 13.6-14.8 22.7-7.8 9.1-15.9 14.1-8 5.1-10 5.1-0.6 0-0.6-0.5 0-0.5 1.5-1.8 16.3-13 23.6-23.7-4.1-3.4-7.5-6.6-3.3-3.3-3.3-4.2 0-1 1.4-1 3.3 0 6.8 1.9 3.6 1.8 5 6.4zm33.5 9q0.5 8.2-1.4 13.3-1.8 5.1-6 8.4-4.3 3.3-5.8 3.3-0.2 0-0.2-0.4 0-0.5 1.2-2.1 6.8-8.5 6.8-18.5 0-3.9-1.1-5.5-1-1.6-1-2.6 0-0.9 1.6-0.9 1.6 0 4.9 1.9 6.1-1.4 7.6-2.9 1.5-1.5 2.7-1.5 1.3 0 4.5 1.7 3.2 1.8 3.2 3.2 0 1.5-1.6 2.7-1.6 1.3-2.3 4.2-0.8 2.9-0.8 4.9 0 2 1.1 2.8 1.1 0.7 3.8 0.5 2.8-0.3 5.3-0.3 2.6 0 3.7 1.2 1.1 1.2 1.1 2.1 0 0.9-2.5 1.9-2.5 1-7.8 1-2.9 0-5.4-1-2.5-1-3.2-2.5-0.7-1.5-0.7-5.6 0-4.1 0.4-6.8 0.5-2.8 0.5-3.5 0-0.8-1.3-0.8-1.3 0-7.3 1.8zm-33.5 17.5q-0.7 2.9-2.9 10 5.4-1.5 8.9-1.5 3.6 0 6.3 2.1 2.7 2 2.7 3 0 1-0.4 1.5-1.8 2.3-2.9 9.5-1.1 7.3-2.1 10.5-1 3.3-4.3 6.6-3.3 3.4-5 3.4-1.7 0-2.2-1.5-1.9-5.1-7.8-10.2-0.7-0.7-0.7-1.3 0-0.7 0.4-1 0.5-0.2 0.8-0.1 7.3 3.4 9 3.4 1.8 0 2.5-0.8 0.7-0.7 1.8-3.7 1.1-2.9 1.9-6.8 0.7-4 0.7-7.3 0-3.3-3.7-3.3-2.7 0-5.2 1.1-2.5 1-6.2 5.4-1 1-2 1-0.9 0-1.5-1.2-0.5-1.2-0.5-2.8 0-1.6 2-3.7 2-2.1 3.7-6.2 1.8-4.2 1.8-6.5 0-2.4-0.5-3.2-0.4-0.8-0.4-1.4 0-1.3 0.9-1.3 1 0 1.9 0.7 2.8 2.1 7 2.1 1.8 0 3.7-0.6 1.9-0.7 2.9-5.6 1.1-4.9 1.1-5.9 0-0.9-0.7-0.9-0.7 0-1.6 0.2-0.9 0.2-3.4 0.2-2.4 0-3.7-0.7-1.3-0.6-1.3-1.1 0-0.6 1.8-1 1.8-0.4 5.3-1.4 3.5-1 4.8-1.6 1.3-0.6 2.6-0.6 1.3 0 4.1 1.9 2.9 2 2.9 3.6 0 1-1.5 1.8-1.5 0.8-1.8 1.2l-2.6 3.1q-2.4 2.8-2.4 4 0 0.6 1.6 2 1.5 1.3 1.5 2.3 0 1.1-1.8 1.3-8.9 0.5-15.5 1.3zm40 23.1q4.2-7.5 4.2-10.2 0-1.5-1.9-1l-8.6 2q-0.6 0.1-1.6 0.1-3.9 0-5.7-0.9-1.8-1-1.8-1.6 0-0.6 3.5-1 3.6-0.4 8.4-1.5 4.7-1.1 6.6-2.1 2-1 3.4-1 1.5 0 4.9 2.2 3.4 2.3 3.4 3.6 0 1.3-1.2 2-2.5 2-4.5 6.4-1.9 4.4-3 5.8 15.2 8.3 15.2 15.8 0 3.8-2 3.8-0.8 0-1.7-0.9-4.4-4-15.6-13.2-5.3 5.1-12.4 7.6-7 2.5-11.8 2.5-1.3 0-1.3-0.4 0-0.5 2-1.5 8.5-3.6 12.1-6.1 3.7-2.5 6.4-6-6.2-4.4-12.3-8.1-1.5-1-1.5-1.7 0-0.7 0.9-0.7 0.6 0 6.8 2.3 6.2 2.3 9.1 3.8z"/></svg>