<svg version="1.2" xmlns="http://www.w3.org/2000/svg" viewBox="0 0 213 29" width="213" height="29"><style>.a{fill:#f7941e}.b{opacity:.51;fill:#979797}</style><path class="a" d="m146.2 0c-1.7 0-3.4 0.3-5 1-1.6 0.7-3 1.7-4.2 3-1.2 1.2-2.2 2.7-2.9 4.4-0.6 1.6-1 3.4-1 5.1 0 1.8 0.4 3.6 1 5.2 0.7 1.6 1.7 3.1 2.9 4.4 1.2 1.2 2.6 2.2 4.2 2.9 1.6 0.7 3.3 1.1 5 1.1 1.7 0 3.4-0.4 5-1.1 1.6-0.7 3-1.7 4.2-2.9 1.2-1.3 2.2-2.8 2.8-4.4 0.7-1.6 1-3.4 1-5.2 0-1.7-0.3-3.5-1-5.1-0.6-1.7-1.6-3.2-2.8-4.4-1.2-1.3-2.6-2.3-4.2-3-1.6-0.6-3.3-1-5-1zm0 3.3c1.3 0 2.6 0.2 3.8 0.8 1.2 0.5 2.3 1.2 3.2 2.2 0.9 0.9 1.6 2.1 2.1 3.3 0.5 1.2 0.8 2.6 0.8 3.9 0 1.4-0.3 2.7-0.8 4-0.5 1.2-1.2 2.3-2.1 3.3-0.9 0.9-2 1.7-3.2 2.2-1.2 0.5-2.5 0.8-3.8 0.8-1.3 0-2.6-0.3-3.8-0.8-1.2-0.5-2.3-1.3-3.2-2.2-0.9-1-1.6-2.1-2.1-3.3-0.5-1.3-0.8-2.6-0.8-4 0-1.3 0.3-2.7 0.8-3.9 0.5-1.2 1.2-2.4 2.1-3.3 0.9-1 2-1.7 3.2-2.2 1.2-0.6 2.5-0.8 3.8-0.8z"/><path class="a" d="m190.7 0.4v11.2 3.1 11.9h3.1v-11.9h8.5l7.1 11.9h3.2l-7.2-12q1.3-0.2 2.5-0.8 1.1-0.6 2-1.6 0.8-0.9 1.3-2.1 0.5-1.2 0.5-2.5 0-1.4-0.6-2.7-0.6-1.3-1.6-2.3-1-1-2.4-1.6-1.3-0.5-2.8-0.5v-0.1h-10.5zm3.2 3.2h10.5q0.8 0 1.5 0.3 0.8 0.3 1.4 0.9 0.5 0.5 0.9 1.3 0.3 0.7 0.3 1.5 0 0.8-0.3 1.5-0.4 0.7-0.9 1.3-0.6 0.6-1.4 0.9-0.7 0.3-1.5 0.3h-10.5z"/><path  d="m31.6 0.4v19.3q0 1.4 0.8 2.8 0.7 1.3 2.1 2.3c0.9 0.7 2 1.2 3.2 1.6 1.2 0.3 2.5 0.5 3.8 0.5 1.3 0 2.6-0.2 3.8-0.5 1.2-0.4 2.3-0.9 3.3-1.6q1.3-1 2.1-2.3 0.8-1.4 0.8-2.8v-19.3h-3.2v19.3q0 0.8-0.5 1.6-0.5 0.7-1.5 1.3-0.9 0.6-2.2 0.9-1.2 0.3-2.6 0.3-1.3 0-2.6-0.3-1.2-0.3-2.2-0.9-0.9-0.6-1.4-1.3-0.5-0.8-0.5-1.6v-19.3z"/><path class="a" d="m164.5 0.4v19.3q0 1.4 0.8 2.8 0.7 1.3 2.1 2.3c0.9 0.7 2 1.2 3.2 1.6 1.2 0.3 2.5 0.5 3.8 0.5 1.3 0 2.6-0.2 3.8-0.5 1.2-0.4 2.3-0.9 3.2-1.6q1.4-1 2.2-2.3 0.8-1.4 0.8-2.8v-19.3h-3.2v19.3q0 0.8-0.5 1.6-0.5 0.7-1.5 1.3-0.9 0.6-2.2 0.9-1.2 0.3-2.6 0.3-1.3 0-2.6-0.3-1.2-0.3-2.2-0.9-0.9-0.6-1.4-1.3-0.5-0.8-0.5-1.6v-19.3z"/><path fill-rule="evenodd" class="a" d="m123.3 0.4v26.2h-3.2v-26.2z"/><path fill-rule="evenodd" class="a" d="m131.9 0.4v3.2h-20.3v-3.2z"/><path fill-rule="evenodd" d="m13.5 20.9l1.4-1.7 11.2 7.4-1.4 1.7z"/><path  d="m81.7 0.4v26.2h16.6v-3.1h-13.5v-23.1z"/><path fill-rule="evenodd" d="m107.3 0.4v26.2h-3.2v-26.2z"/><path fill-rule="evenodd" class="b" d="m13 13.5c-7.2 0-13 0-13 0 0 0 5.8 0 13 0 7.3 0 13.1 0 13.1 0 0 0-5.8 0-13.1 0z"/><path  d="m13 0c-1.7 0-3.4 0.4-4.9 1-1.6 0.7-3.1 1.7-4.3 3-1.2 1.2-2.1 2.7-2.8 4.4-0.7 1.6-1 3.4-1 5.1 0 1.8 0.3 3.6 1 5.2 0.7 1.7 1.6 3.1 2.8 4.4 1.2 1.3 2.7 2.3 4.3 2.9 1.5 0.7 3.2 1.1 4.9 1.1 1.8 0 3.4-0.4 5-1.1 1.6-0.6 3.1-1.6 4.3-2.9 1.2-1.2 2.1-2.7 2.8-4.4 0.6-1.6 1-3.4 1-5.2 0-1.7-0.4-3.5-1-5.1-0.7-1.7-1.6-3.2-2.8-4.4-1.2-1.3-2.7-2.3-4.3-3-1.6-0.6-3.2-1-5-1zm0 3.3c1.3 0 2.6 0.3 3.8 0.8 1.2 0.5 2.3 1.2 3.2 2.2 0.9 0.9 1.7 2.1 2.2 3.3 0.5 1.3 0.7 2.6 0.7 3.9 0 1.4-0.2 2.7-0.7 4-0.5 1.2-1.3 2.3-2.2 3.3-0.9 0.9-2 1.7-3.2 2.2-1.2 0.5-2.5 0.8-3.8 0.8-1.3 0-2.5-0.3-3.7-0.8-1.2-0.5-2.3-1.3-3.2-2.2-1-1-1.7-2.1-2.2-3.3-0.5-1.3-0.7-2.6-0.7-4 0-1.3 0.2-2.6 0.7-3.9 0.5-1.2 1.2-2.4 2.2-3.3 0.9-1 2-1.7 3.2-2.2 1.2-0.5 2.4-0.8 3.7-0.8z"/><path  d="m65.1 0.4l-10.1 26.2h3.2l3-7.9h11l3 7.9h3.2l-10.1-26.2zm1.6 4.1l4.2 11h-8.5z"/></svg>